<svg width="15" height="15" viewBox="0 0 15 15" fill="none" xmlns="http://www.w3.org/2000/svg">
<path fill-rule="evenodd" clip-rule="evenodd" d="M7.34324 0.849609C3.56826 0.849609 0.53125 3.98772 0.53125 7.88835C0.53125 10.9971 2.4897 13.6367 5.18611 14.5752C5.52671 14.6338 5.64024 14.4285 5.64024 14.2232C5.64024 14.0473 5.64024 13.6073 5.64024 13.0208C3.73856 13.4607 3.3412 12.0823 3.3412 12.0823C3.02898 11.2611 2.57485 11.0558 2.57485 11.0558C1.95041 10.6159 2.63161 10.6159 2.63161 10.6159C3.31281 10.6745 3.6818 11.3491 3.6818 11.3491C4.27784 12.4342 5.27126 12.1116 5.66863 11.9356C5.72539 11.4664 5.89569 11.1731 6.09438 10.9971C4.59006 10.8212 3.0006 10.2053 3.0006 7.50709C3.0006 6.74456 3.25605 6.09934 3.71018 5.63009C3.65341 5.45412 3.39796 4.75025 3.76695 3.75309C3.76695 3.75309 4.33461 3.57712 5.64024 4.48629C6.17953 4.33965 6.77557 4.25167 7.34324 4.25167C7.91091 4.25167 8.50696 4.33965 9.04624 4.48629C10.3519 3.57712 10.9195 3.75309 10.9195 3.75309C11.2885 4.72092 11.0615 5.42479 10.9763 5.63009C11.4021 6.12867 11.6859 6.74456 11.6859 7.50709C11.6859 10.2053 10.0964 10.7918 8.56372 10.9678C8.81917 11.1731 9.01785 11.613 9.01785 12.2582C9.01785 13.1967 9.01785 13.9593 9.01785 14.1939C9.01785 14.3699 9.13139 14.6045 9.50037 14.5458C12.1968 13.6367 14.1552 10.9971 14.1552 7.88835C14.1552 3.98772 11.1182 0.849609 7.34324 0.849609Z" fill="#F5F1FF"/>
</svg>
