<svg width="13" height="11" viewBox="0 0 13 11" fill="none" xmlns="http://www.w3.org/2000/svg">
<path d="M12.0786 1.93087C11.6381 2.13316 11.1732 2.2596 10.6837 2.33546C11.1732 2.03202 11.5647 1.55157 11.736 0.969976C11.271 1.24813 10.7571 1.45042 10.1943 1.57686C9.75378 1.09641 9.1175 0.792969 8.43228 0.792969C7.11079 0.792969 6.03402 1.90558 6.03402 3.27106C6.03402 3.47336 6.05849 3.65036 6.10744 3.82737C4.1252 3.72622 2.33874 2.74004 1.13961 1.22284C0.943833 1.60214 0.821473 2.00673 0.821473 2.46189C0.821473 3.32164 1.2375 4.08024 1.89824 4.5354C1.50669 4.51011 1.13961 4.40896 0.797 4.23196V4.25724C0.797 5.471 1.62905 6.48247 2.73029 6.71005C2.53452 6.76062 2.31427 6.78591 2.09402 6.78591C1.94719 6.78591 1.77588 6.76062 1.62905 6.73534C1.94719 7.72152 2.82818 8.45483 3.88048 8.45483C3.04843 9.11228 2.0206 9.51687 0.894889 9.51687C0.699112 9.51687 0.503336 9.51687 0.332031 9.49158C1.4088 10.1996 2.65688 10.6042 4.02731 10.6042C8.45676 10.6042 10.8795 6.8112 10.8795 3.52393C10.8795 3.42278 10.8795 3.29635 10.8795 3.1952C11.3445 2.86648 11.7605 2.4366 12.0786 1.93087Z" fill="#F5F1FF"/>
</svg>
