<svg width="15" height="16" viewBox="0 0 15 16" fill="none" xmlns="http://www.w3.org/2000/svg">
<path d="M7.65262 2.17553C9.55403 2.17553 9.7792 2.18289 10.5303 2.21828C10.982 2.22399 11.4293 2.30967 11.8529 2.47162C12.1601 2.59403 12.439 2.78154 12.6718 3.0221C12.9046 3.26265 13.0861 3.55091 13.2046 3.86831C13.3613 4.306 13.4442 4.76822 13.4498 5.23488C13.4837 6.01102 13.4911 6.24368 13.4911 8.20838C13.4911 10.1731 13.484 10.4057 13.4498 11.1819C13.4442 11.6485 13.3613 12.1108 13.2046 12.5484C13.0861 12.8659 12.9046 13.1541 12.6718 13.3947C12.439 13.6352 12.1601 13.8227 11.8529 13.9451C11.4293 14.1071 10.982 14.1928 10.5303 14.1985C9.77954 14.2335 9.55437 14.2412 7.65262 14.2412C5.75088 14.2412 5.5257 14.2339 4.77491 14.1985C4.32329 14.1928 3.87596 14.1071 3.45237 13.9451C3.14519 13.8227 2.86621 13.6352 2.63341 13.3947C2.40061 13.1541 2.21913 12.8659 2.10066 12.5484C1.94394 12.1108 1.86101 11.6485 1.85549 11.1819C1.82157 10.4057 1.81411 10.1731 1.81411 8.20838C1.81411 6.24368 1.82124 6.01102 1.85549 5.23488C1.86101 4.76822 1.94394 4.306 2.10066 3.86831C2.21913 3.55091 2.40061 3.26265 2.63341 3.0221C2.86621 2.78154 3.14519 2.59403 3.45237 2.47162C3.87596 2.30967 4.32329 2.22399 4.77491 2.21828C5.52604 2.18324 5.75121 2.17553 7.65262 2.17553ZM7.65262 0.849609C5.71968 0.849609 5.47619 0.858019 4.71658 0.89376C4.12552 0.905908 3.54074 1.02154 2.98711 1.23575C2.51218 1.42065 2.08201 1.71039 1.72662 2.08477C1.36398 2.45212 1.08332 2.89686 0.904274 3.38791C0.696968 3.95998 0.585056 4.56423 0.5733 5.17496C0.539389 5.95916 0.53125 6.21074 0.53125 8.20803C0.53125 10.2053 0.539389 10.4569 0.573978 11.2418C0.585735 11.8525 0.697646 12.4568 0.904952 13.0288C1.0838 13.5198 1.36422 13.9646 1.72662 14.332C2.08221 14.7065 2.51261 14.9962 2.98778 15.181C3.54142 15.3952 4.1262 15.5109 4.71726 15.523C5.47687 15.558 5.71934 15.5672 7.6533 15.5672C9.58726 15.5672 9.82973 15.5587 10.5893 15.523C11.1804 15.5109 11.7652 15.3952 12.3188 15.181C12.7917 14.9916 13.2212 14.7023 13.5797 14.3316C13.9382 13.9609 14.218 13.5169 14.401 13.0281C14.6083 12.4561 14.7202 11.8518 14.7319 11.2411C14.7659 10.4569 14.774 10.2053 14.774 8.20803C14.774 6.21074 14.7659 5.95916 14.7313 5.17426C14.7195 4.56353 14.6076 3.95928 14.4003 3.38721C14.2214 2.89622 13.941 2.45149 13.5786 2.08407C13.223 1.70961 12.7926 1.41985 12.3175 1.23505C11.7638 1.02084 11.179 0.905207 10.588 0.893059C9.82905 0.858019 9.58556 0.849609 7.65262 0.849609Z" fill="#F5F1FF"/>
</svg>
